<svg xmlns="http://www.w3.org/2000/svg" viewBox="0 0 512 512">
  <!-- KangaruRide fleet · boda boda commuter motorcycle · true top-down · unified scale with sedan-top.svg -->
  <defs>
    <radialGradient id="shadow" cx="50%" cy="50%" r="50%">
      <stop offset="0%" stop-color="#0B1220" stop-opacity="0.20"/>
      <stop offset="65%" stop-color="#0B1220" stop-opacity="0.10"/>
      <stop offset="100%" stop-color="#0B1220" stop-opacity="0"/>
    </radialGradient>
    <linearGradient id="green" x1="0" y1="0" x2="1" y2="0">
      <stop offset="0" stop-color="#128A48"/>
      <stop offset="0.5" stop-color="#1CB964"/>
      <stop offset="1" stop-color="#128A48"/>
    </linearGradient>
    <linearGradient id="steel" x1="0" y1="0" x2="1" y2="0">
      <stop offset="0" stop-color="#9AA1A8"/>
      <stop offset="0.5" stop-color="#C7CDD3"/>
      <stop offset="1" stop-color="#9AA1A8"/>
    </linearGradient>
  </defs>

  <ellipse cx="256" cy="258" rx="66" ry="132" fill="url(#shadow)"/>

  <!-- wheels -->
  <rect x="248" y="138" width="16" height="60" rx="8" fill="#17191C"/>
  <rect x="248" y="336" width="16" height="42" rx="8" fill="#17191C"/>

  <!-- forks -->
  <rect x="244" y="166" width="5" height="44" rx="2.5" fill="url(#steel)"/>
  <rect x="263" y="166" width="5" height="44" rx="2.5" fill="url(#steel)"/>

  <!-- front fender -->
  <rect x="245" y="136" width="22" height="34" rx="11" fill="url(#green)"/>

  <!-- rear carrier rack -->
  <g fill="#26292E">
    <rect x="236" y="340" width="40" height="34" rx="8"/>
  </g>
  <g stroke="#3B4046" stroke-width="4" stroke-linecap="round">
    <line x1="244" y1="350" x2="268" y2="350"/>
    <line x1="244" y1="360" x2="268" y2="360"/>
  </g>

  <!-- engine block with fins -->
  <rect x="235" y="256" width="42" height="42" rx="9" fill="url(#steel)"/>
  <g stroke="#82898F" stroke-width="3.5" stroke-linecap="round">
    <line x1="241" y1="266" x2="271" y2="266"/>
    <line x1="241" y1="276" x2="271" y2="276"/>
    <line x1="241" y1="286" x2="271" y2="286"/>
  </g>

  <!-- fuel tank -->
  <path fill="url(#green)" d="M256 206 C274 206 282 216 282 232 C282 248 274 258 256 258 C238 258 230 248 230 232 C230 216 238 206 256 206 Z"/>
  <ellipse cx="250" cy="222" rx="12" ry="8" fill="#FFFFFF" opacity="0.18"/>

  <!-- seat -->
  <rect x="233" y="296" width="46" height="48" rx="15" fill="#1D2024"/>
  <rect x="239" y="302" width="34" height="16" rx="8" fill="#FFFFFF" opacity="0.06"/>

  <!-- handlebar, grips, mirrors -->
  <g stroke="#4A5057" stroke-width="4" stroke-linecap="round">
    <line x1="212" y1="200" x2="200" y2="182"/>
    <line x1="300" y1="200" x2="312" y2="182"/>
  </g>
  <circle cx="198" cy="178" r="8" fill="#26292E"/>
  <circle cx="314" cy="178" r="8" fill="#26292E"/>
  <rect x="201" y="197" width="110" height="11" rx="5.5" fill="#26292E"/>
  <rect x="201" y="196" width="24" height="13" rx="6.5" fill="#17191C"/>
  <rect x="287" y="196" width="24" height="13" rx="6.5" fill="#17191C"/>
</svg>
